<svg width="20" height="18" viewBox="0 0 20 18" fill="none" xmlns="http://www.w3.org/2000/svg">
<path fill-rule="evenodd" clip-rule="evenodd" d="M19.0927 8.06776H3.1122L8.8878 2.1095C9.23902 1.74595 9.24878 1.15012 8.8878 0.776466C8.53658 0.412911 7.96098 0.402812 7.6 0.776466L0.263415 8.34043C0.17561 8.43132 0.117073 8.53231 0.0682927 8.64339C0.0195122 8.75448 0 8.87567 0 9.00695C0 9.13823 0.0292683 9.25942 0.0682927 9.3705C0.107317 9.47149 0.17561 9.56238 0.243902 9.64317C0.243902 9.64317 0.253659 9.66337 0.263415 9.67347L7.6 17.2273C7.95122 17.5909 8.52683 17.5909 8.8878 17.2273C9.23902 16.8638 9.23902 16.268 8.8878 15.8943L3.1122 9.94613H19.0927C19.5902 9.94613 20 9.52199 20 9.00695C20 8.49191 19.5902 8.06776 19.0927 8.06776Z" fill="#3955A4"/>
</svg>
