<svg width="28" height="28" viewBox="0 0 28 28" fill="none" xmlns="http://www.w3.org/2000/svg">
<path fill-rule="evenodd" clip-rule="evenodd" d="M23.0927 13.0678H7.1122L12.8878 7.1095C13.239 6.74595 13.2488 6.15012 12.8878 5.77647C12.5366 5.41291 11.961 5.40281 11.6 5.77647L4.26341 13.3404C4.17561 13.4313 4.11707 13.5323 4.06829 13.6434C4.01951 13.7545 4 13.8757 4 14.0069C4 14.1382 4.02927 14.2594 4.06829 14.3705C4.10732 14.4715 4.17561 14.5624 4.2439 14.6432C4.2439 14.6432 4.25366 14.6634 4.26341 14.6735L11.6 22.2273C11.9512 22.5909 12.5268 22.5909 12.8878 22.2273C13.239 21.8638 13.239 21.268 12.8878 20.8943L7.1122 14.9461H23.0927C23.5902 14.9461 24 14.522 24 14.0069C24 13.4919 23.5902 13.0678 23.0927 13.0678Z" fill="#3955A4"/>
</svg>
