<svg width="24" height="24" viewBox="0 0 24 24" fill="none" xmlns="http://www.w3.org/2000/svg">
<path d="M10.252 10.03C10.252 10.57 10.402 10.65 10.742 10.77L11.252 10.95V9.25H10.952C10.572 9.25 10.252 9.6 10.252 10.03Z" fill="#292D32"/>
<path d="M12.752 14.75H13.052C13.442 14.75 13.752 14.4 13.752 13.97C13.752 13.43 13.602 13.35 13.262 13.23L12.752 13.05V14.75Z" fill="#292D32"/>
<path d="M19.582 5.48L17.532 7.53C17.382 7.68 17.192 7.75 17.002 7.75C16.812 7.75 16.622 7.68 16.472 7.53C16.182 7.24 16.182 6.76 16.472 6.47L18.522 4.42C16.762 2.92 14.492 2 12.002 2C6.48195 2 2.00195 6.48 2.00195 12C2.00195 17.52 6.48195 22 12.002 22C17.522 22 22.002 17.52 22.002 12C22.002 9.51 21.082 7.24 19.582 5.48ZM13.752 11.82C14.392 12.05 15.252 12.51 15.252 13.98C15.252 15.23 14.262 16.26 13.052 16.26H12.752V16.51C12.752 16.92 12.412 17.26 12.002 17.26C11.592 17.26 11.252 16.92 11.252 16.51V16.26H11.172C9.84195 16.26 8.75195 15.14 8.75195 13.76C8.75195 13.34 9.09195 13 9.50195 13C9.91195 13 10.252 13.34 10.252 13.75C10.252 14.3 10.662 14.75 11.172 14.75H11.252V12.53L10.252 12.18C9.61195 11.95 8.75195 11.49 8.75195 10.02C8.75195 8.77 9.74195 7.74 10.952 7.74H11.252V7.5C11.252 7.09 11.592 6.75 12.002 6.75C12.412 6.75 12.752 7.09 12.752 7.5V7.75H12.832C14.162 7.75 15.252 8.87 15.252 10.25C15.252 10.66 14.912 11 14.502 11C14.092 11 13.752 10.66 13.752 10.25C13.752 9.7 13.342 9.25 12.832 9.25H12.752V11.47L13.752 11.82Z" fill="#292D32"/>
<path d="M22.692 1.71C22.612 1.53 22.472 1.38 22.282 1.3C22.192 1.27 22.102 1.25 22.002 1.25H18.002C17.592 1.25 17.252 1.59 17.252 2C17.252 2.41 17.592 2.75 18.002 2.75H20.192L18.522 4.42C18.902 4.75 19.252 5.1 19.582 5.48L21.252 3.81V6C21.252 6.41 21.592 6.75 22.002 6.75C22.412 6.75 22.752 6.41 22.752 6V2C22.752 1.9 22.732 1.81 22.692 1.71Z" fill="#292D32"/>
</svg>
