<svg width="160" height="179" viewBox="0 0 160 179" fill="none" xmlns="http://www.w3.org/2000/svg">
<path d="M101.333 96.3333V111C101.333 112.452 80 116.848 80 116.848C80 116.848 58.6667 113.071 58.6667 111C58.6667 107.08 58.7467 87.4 58.6667 69.1253C49.112 56.7407 49.112 49 56.6667 41C64.2213 33 118 29 118 29C118 29 122.035 67.8067 122.667 78.3333C122.921 82.5667 125.667 96.3333 115 96.3333H101.333Z" fill="url(#paint0_linear_302_148)"/>
<path d="M101.333 95.082V103.107C87.0449 100.562 78.8227 95.1929 76.6667 87C82.8889 91.2222 90.8889 93.8889 100.667 95C100.889 95.0253 101.111 95.0527 101.333 95.082Z" fill="#DE6530"/>
<path d="M150 141.205C154.231 149.808 157.564 164.031 160 183.872H0C2.43644 164.028 5.76978 149.806 10 141.205C14.216 132.633 53.3333 116.133 53.3333 116.133L106.667 116.128C106.667 116.128 145.792 132.65 150 141.205Z" fill="url(#paint1_linear_302_148)"/>
<path d="M84.6667 120.333L88 181.667H72L75.3333 120.333C75.3333 120.333 78.4447 117 80 117C81.5553 117 84.6667 120.333 84.6667 120.333Z" fill="url(#paint2_linear_302_148)"/>
<path d="M85.3413 132.745L74.984 126.761L75.3333 120.333C77.4076 118.111 78.9631 117 80 117C81.0369 117 82.5924 118.111 84.6667 120.333L85.3413 132.745Z" fill="#D24B24"/>
<path d="M80 116.994L73.3333 129L52.6667 116.333L58.6667 107.667L80 115.547L101.333 107.667L107.333 116.333L86.6667 129L80 116.994Z" fill="white"/>
<path d="M67.3467 49.1373C65.2267 47.3167 62.6507 46.0907 59.0093 47.9827C50.3767 52.4647 56.106 69.7567 65.7667 69.4193C69.1 69.3033 67.572 75.946 58.6667 80.3333C58.6667 73.3333 48 56 47.0667 40.2187C36.3333 36.222 39 20.2307 46.3687 20.2307C45.1927 5.56999 68.6667 -2.00201 77.756 6.41066C87 -4.66867 110.333 0.997992 111.742 10.61C127.787 2.04533 138.333 26.6647 123.31 36.222C117.128 40.1553 102.667 41.652 81.7913 41.652C71.774 41.652 77.5347 65.0987 80.6667 72.6667C84.6667 82.3333 107 83.6667 114 82.6667C119.467 81.886 122.333 79.6667 122.667 78.3333C127.667 91.6667 121.333 99.6667 111.333 99.6667C94.3333 99.6667 77.3333 94.6667 74.6667 82.3333C72.544 72.518 72.6607 56.6773 67.3467 49.1373Z" fill="url(#paint3_linear_302_148)"/>
<defs>
<linearGradient id="paint0_linear_302_148" x1="87.1983" y1="29" x2="87.1983" y2="116.848" gradientUnits="userSpaceOnUse">
<stop stop-color="#E6864E"/>
<stop offset="1" stop-color="#EB965E"/>
</linearGradient>
<linearGradient id="paint1_linear_302_148" x1="80" y1="116.128" x2="80" y2="183.872" gradientUnits="userSpaceOnUse">
<stop stop-color="#130027"/>
<stop offset="1" stop-color="#130017"/>
</linearGradient>
<linearGradient id="paint2_linear_302_148" x1="80" y1="181.667" x2="80" y2="117" gradientUnits="userSpaceOnUse">
<stop stop-color="#E6864E"/>
<stop offset="1" stop-color="#E67240"/>
</linearGradient>
<linearGradient id="paint3_linear_302_148" x1="85.2323" y1="0.329636" x2="85.2323" y2="99.6667" gradientUnits="userSpaceOnUse">
<stop stop-color="#130027"/>
<stop offset="1" stop-color="#130017"/>
</linearGradient>
</defs>
</svg>
