<svg width="147" height="179" viewBox="0 0 147 179" fill="none" xmlns="http://www.w3.org/2000/svg">
<path d="M60.1953 118.249C65.9689 108.65 79.2244 90.2483 110.787 64.392C158.413 25.3754 113.463 -10.3118 65.1738 8.69505C60.0081 10.7286 45.6933 2.58799 32.4332 11.1641C23.8795 16.6964 27.2084 21.032 23.8778 25.3677C20.5472 29.7033 7.70653 29.4482 4.89356 40.7062C3.22755 47.376 7.83788 54.3624 7.22123 59.3826C6.60459 64.4028 1.73765 68.928 1.50546 75.5554C1.40494 78.3545 1.85683 81.1461 2.83533 83.7705C3.81384 86.395 5.29978 88.801 7.20828 90.8511C9.11679 92.9012 11.4105 94.5553 13.9583 95.7188C16.5062 96.8823 19.2583 97.5325 22.0575 97.6323C22.0804 103.166 24.2411 108.477 28.0881 112.455C31.9351 116.432 37.1706 118.77 42.7005 118.977C46.2464 119.107 49.7681 118.344 52.9425 116.759C56.0922 119.662 58.7962 120.575 60.1953 118.249Z" fill="url(#paint0_linear_302_137)"/>
<path d="M72 6.33336C63.7893 11.6 53.6313 28.8734 58.09 52.0607C59.0626 57.12 56.0233 58.6347 53.4233 52.394C45.5786 33.5667 44.6693 16.5874 58.09 8.46536C60.4233 7.06069 61.7566 8.19869 63.4233 8.06069C66.5933 7.79803 70.8613 5.55203 72 6.33336Z" fill="url(#paint1_linear_302_137)"/>
<path d="M61.3333 108.333C61.3333 102.333 61.1293 72.7387 61.1393 72.2387C44.6667 74.6667 45 43.3334 61.6667 51C65.3333 53.3334 75.6667 51 74.6667 31.6667C92.6667 51 113.565 28.4507 115.357 46.8254C117.804 71.9154 115.342 98.1727 99.7493 98.1747C98.0435 98.154 96.3428 97.9841 94.6667 97.6667V108.333C94.6667 115 106.667 118.333 106.667 118.333C106.667 118.333 85.9387 137.867 77.3333 137.759C68.728 137.651 49.3333 118.333 49.3333 118.333C49.3333 118.333 61.3333 115 61.3333 108.333Z" fill="url(#paint2_linear_302_137)"/>
<g style="mix-blend-mode:multiply">
<path d="M94.6663 97.6633C86.3956 95.8291 78.5583 92.4108 71.587 87.5973C71.587 87.5973 77.3391 101.659 94.6449 104.327L94.6663 97.6633Z" fill="#FFDBC9"/>
</g>
<path d="M139.333 138.333C144.17 149.081 146.667 181.667 146.667 181.667H9.33333C9.33333 181.667 11.83 149.081 16.6667 138.333C20.904 128.918 48.826 118.107 57.0087 115C61.7333 120.285 68.504 123.667 78 123.667C87.496 123.667 94.2667 120.285 98.9913 115C107.174 118.107 135.096 128.918 139.333 138.333Z" fill="url(#paint3_linear_302_137)"/>
<defs>
<linearGradient id="paint0_linear_302_137" x1="63.9709" y1="119.777" x2="68.0776" y2="2.56075" gradientUnits="userSpaceOnUse">
<stop stop-color="#E6864E"/>
<stop offset="1" stop-color="#E67240"/>
</linearGradient>
<linearGradient id="paint1_linear_302_137" x1="59.8596" y1="6.16913" x2="59.8596" y2="56.4929" gradientUnits="userSpaceOnUse">
<stop stop-color="#1D0024"/>
<stop offset="1" stop-color="#100014"/>
</linearGradient>
<linearGradient id="paint2_linear_302_137" x1="82.5733" y1="31.6667" x2="82.5733" y2="137.759" gradientUnits="userSpaceOnUse">
<stop stop-color="#FFE0CC"/>
<stop offset="1" stop-color="#FFEADB"/>
</linearGradient>
<linearGradient id="paint3_linear_302_137" x1="78" y1="115" x2="78" y2="181.667" gradientUnits="userSpaceOnUse">
<stop stop-color="#130027"/>
<stop offset="1" stop-color="#130017"/>
</linearGradient>
</defs>
</svg>
